<svg width="133" height="192" viewBox="0 0 133 192" fill="none" xmlns="http://www.w3.org/2000/svg">
<path d="M124.88 192L132.919 183.711L121.72 180.894L124.88 192ZM14.7182 -44.6069C5.9366 -33.1083 1.42402 -22.6376 0.289767 -12.8806C-0.845954 -3.11094 1.41639 5.84993 6.02177 14.298C15.1895 31.1152 33.7273 46.024 53.4623 61.5105C73.2773 77.0597 94.3761 93.2427 109.068 112.689C123.722 132.085 131.961 154.675 126.094 183.079L128.053 183.483C134.06 154.397 125.584 131.232 110.664 111.484C95.7823 91.7861 74.4471 75.4354 54.697 59.9371C34.8669 44.376 16.7086 29.7233 7.77779 13.3407C3.33392 5.18893 1.19643 -3.35966 2.27639 -12.6496C3.35782 -21.9522 7.67643 -32.0913 16.3077 -43.3931L14.7182 -44.6069Z" fill="#9747FF" fill-opacity="0.31"/>
</svg>
