<svg width="103" height="231" viewBox="0 0 103 231" fill="none" xmlns="http://www.w3.org/2000/svg">
<path d="M103 228.5L80.0291 230.881L89.4521 209.797L103 228.5ZM1.98019 3.93127C0.913578 3.64418 0.281648 2.5468 0.568732 1.48019C0.855816 0.413574 1.9532 -0.218353 3.01981 0.0687256L1.98019 3.93127ZM85.3726 222.759C71.5069 212.414 70.0314 195.561 72.355 176.517C73.5235 166.94 75.683 156.584 77.8807 145.926C80.0853 135.236 82.3348 124.214 83.7312 113.168C86.5263 91.0587 85.8561 69.1714 74.7723 50.1665C63.7126 31.203 42.0469 14.7155 1.98019 3.93127L3.01981 0.0687256C43.7021 11.0186 66.4593 27.9728 78.2276 48.1514C89.9718 68.2886 90.5348 91.2439 87.6996 113.67C86.2808 124.892 83.9993 136.061 81.7983 146.734C79.5906 157.44 77.4701 167.621 76.3256 177.001C74.0231 195.872 75.7894 210.619 87.7646 219.553L85.3726 222.759Z" fill="#9747FF" fill-opacity="0.31"/>
</svg>
