<svg width="126" height="192" viewBox="0 0 126 192" fill="none" xmlns="http://www.w3.org/2000/svg">
<path d="M0.837654 8.3298L11.9516 11.4625L9.10763 0.27121L0.837654 8.3298ZM218.803 148.84C203.449 158.028 184.661 167.744 165.527 175.381C146.381 183.022 126.95 188.556 110.291 189.43C93.6156 190.306 79.9531 186.509 71.9814 175.784C63.9825 165.022 61.4653 146.965 67.907 118.709L65.957 118.265C59.4737 146.703 61.8462 165.5 70.3762 176.977C78.9335 188.49 93.4392 192.318 110.396 191.428C127.368 190.537 147.033 184.915 166.269 177.238C185.517 169.556 204.401 159.789 219.83 150.556L218.803 148.84ZM67.907 118.709C79.7719 66.6656 73.8522 36.5851 60.4167 20.3191C46.9543 4.02056 26.2372 1.92428 9.36955 5.13179L9.74317 7.09658C26.2582 3.95612 46.073 6.09407 58.8747 21.5928C71.7034 37.1242 77.7802 66.4041 65.957 118.265L67.907 118.709Z" fill="#FDD818" fill-opacity="0.34"/>
</svg>
