<svg width="139" height="116" viewBox="0 0 139 116" fill="none" xmlns="http://www.w3.org/2000/svg">
<path d="M6.15159 2.64391C6.50721 1.59815 5.94775 0.462111 4.90199 0.10649C3.85623 -0.249131 2.72019 0.310334 2.36457 1.35609L6.15159 2.64391ZM138.273 114L125.212 94.9541L115.248 115.788L138.273 114ZM2.36457 1.35609C-1.08426 11.4979 -1.88773 26.2568 7.87205 36.6273C17.6389 47.0052 37.2341 52.1772 72.6153 44.9558L71.8154 41.0366C36.7912 48.1851 19.0662 42.6853 10.7849 33.8859C2.49665 25.079 2.91725 12.155 6.15159 2.64391L2.36457 1.35609ZM72.6153 44.9558C80.4382 43.3592 86.3928 42.7632 90.9161 42.9427C95.4414 43.1222 98.388 44.072 100.341 45.4278C104.147 48.0703 105.02 52.8839 104.987 60.0391C104.924 73.7302 101.367 94.1621 120.887 107.871L123.186 104.598C105.771 92.3672 108.919 74.7271 108.987 60.0576C109.019 53.0325 108.314 46.0937 102.622 42.142C99.8258 40.2007 96.0432 39.143 91.0746 38.9458C86.1041 38.7486 79.8001 39.4069 71.8154 41.0366L72.6153 44.9558Z" fill="#9747FF"/>
</svg>
