<svg width="62" height="54" viewBox="0 0 62 54" fill="none" xmlns="http://www.w3.org/2000/svg">
<path d="M16.2574 4.24264C18.6005 1.89949 22.3995 1.89949 24.7426 4.24264L36.7574 16.2574C39.1005 18.6005 39.1005 22.3995 36.7574 24.7426L24.7426 36.7574C22.3995 39.1005 18.6005 39.1005 16.2574 36.7574L4.24264 24.7426C1.89949 22.3995 1.89949 18.6005 4.24264 16.2574L16.2574 4.24264Z" fill="#A3FBA5" fill-opacity="0.43"/>
<path d="M37.2574 17.2426C39.6005 14.8995 43.3995 14.8995 45.7426 17.2426L57.7574 29.2574C60.1005 31.6005 60.1005 35.3995 57.7574 37.7426L45.7426 49.7574C43.3995 52.1005 39.6005 52.1005 37.2574 49.7574L25.2426 37.7426C22.8995 35.3995 22.8995 31.6005 25.2426 29.2574L37.2574 17.2426Z" fill="#FDD818" fill-opacity="0.24"/>
</svg>
