<svg width="159" height="42" viewBox="0 0 159 42" fill="none" xmlns="http://www.w3.org/2000/svg">
<g clip-path="url(#clip0_6_83)">
<rect width="159" height="42" rx="14" fill="white"/>
<path d="M70.4766 24.2734L73.8281 14.625H75.4609L71.25 26H70.0859L70.4766 24.2734ZM67.3438 14.625L70.6641 24.2734L71.0781 26H69.9141L65.7109 14.625H67.3438ZM79.9375 26.1562C79.349 26.1562 78.8151 26.0573 78.3359 25.8594C77.862 25.6562 77.4531 25.3724 77.1094 25.0078C76.7708 24.6432 76.5104 24.2109 76.3281 23.7109C76.1458 23.2109 76.0547 22.6641 76.0547 22.0703V21.7422C76.0547 21.0547 76.1562 20.4427 76.3594 19.9062C76.5625 19.3646 76.8385 18.9062 77.1875 18.5312C77.5365 18.1562 77.9323 17.8724 78.375 17.6797C78.8177 17.487 79.276 17.3906 79.75 17.3906C80.3542 17.3906 80.875 17.4948 81.3125 17.7031C81.7552 17.9115 82.1172 18.2031 82.3984 18.5781C82.6797 18.9479 82.888 19.3854 83.0234 19.8906C83.1589 20.3906 83.2266 20.9375 83.2266 21.5312V22.1797H76.9141V21H81.7812V20.8906C81.7604 20.5156 81.6823 20.151 81.5469 19.7969C81.4167 19.4427 81.2083 19.151 80.9219 18.9219C80.6354 18.6927 80.2448 18.5781 79.75 18.5781C79.4219 18.5781 79.1198 18.6484 78.8438 18.7891C78.5677 18.9245 78.3307 19.1276 78.1328 19.3984C77.9349 19.6693 77.7812 20 77.6719 20.3906C77.5625 20.7812 77.5078 21.2318 77.5078 21.7422V22.0703C77.5078 22.4714 77.5625 22.849 77.6719 23.2031C77.7865 23.5521 77.9505 23.8594 78.1641 24.125C78.3828 24.3906 78.6458 24.599 78.9531 24.75C79.2656 24.901 79.6198 24.9766 80.0156 24.9766C80.526 24.9766 80.9583 24.8724 81.3125 24.6641C81.6667 24.4557 81.9766 24.1771 82.2422 23.8281L83.1172 24.5234C82.9349 24.7995 82.7031 25.0625 82.4219 25.3125C82.1406 25.5625 81.7943 25.7656 81.3828 25.9219C80.9766 26.0781 80.4948 26.1562 79.9375 26.1562ZM86.3594 18.875V26H84.9141V17.5469H86.3203L86.3594 18.875ZM89 17.5L88.9922 18.8438C88.8724 18.8177 88.7578 18.8021 88.6484 18.7969C88.5443 18.7865 88.4245 18.7812 88.2891 18.7812C87.9557 18.7812 87.6615 18.8333 87.4062 18.9375C87.151 19.0417 86.9349 19.1875 86.7578 19.375C86.5807 19.5625 86.4401 19.7865 86.3359 20.0469C86.237 20.3021 86.1719 20.5833 86.1406 20.8906L85.7344 21.125C85.7344 20.6146 85.7839 20.1354 85.8828 19.6875C85.987 19.2396 86.1458 18.8438 86.3594 18.5C86.5729 18.151 86.8438 17.8802 87.1719 17.6875C87.5052 17.4896 87.901 17.3906 88.3594 17.3906C88.4635 17.3906 88.5833 17.4036 88.7188 17.4297C88.8542 17.4505 88.9479 17.474 89 17.5ZM91.9062 17.5469V26H90.4531V17.5469H91.9062ZM90.3438 15.3047C90.3438 15.0703 90.4141 14.8724 90.5547 14.7109C90.7005 14.5495 90.9141 14.4688 91.1953 14.4688C91.4714 14.4688 91.6823 14.5495 91.8281 14.7109C91.9792 14.8724 92.0547 15.0703 92.0547 15.3047C92.0547 15.5286 91.9792 15.7214 91.8281 15.8828C91.6823 16.0391 91.4714 16.1172 91.1953 16.1172C90.9141 16.1172 90.7005 16.0391 90.5547 15.8828C90.4141 15.7214 90.3438 15.5286 90.3438 15.3047ZM96.1562 26H94.7109V16.8125C94.7109 16.1719 94.8359 15.6302 95.0859 15.1875C95.3359 14.7448 95.6927 14.4089 96.1562 14.1797C96.6198 13.9505 97.1693 13.8359 97.8047 13.8359C98.1797 13.8359 98.5469 13.8828 98.9062 13.9766C99.2656 14.0651 99.6354 14.1771 100.016 14.3125L99.7734 15.5312C99.5339 15.4375 99.2552 15.349 98.9375 15.2656C98.625 15.1771 98.2812 15.1328 97.9062 15.1328C97.2865 15.1328 96.8385 15.2734 96.5625 15.5547C96.2917 15.8307 96.1562 16.25 96.1562 16.8125V26ZM97.8828 17.5469V18.6562H93.375V17.5469H97.8828ZM100.727 17.5469V26H99.2812V17.5469H100.727ZM106.609 26.1562C106.021 26.1562 105.487 26.0573 105.008 25.8594C104.534 25.6562 104.125 25.3724 103.781 25.0078C103.443 24.6432 103.182 24.2109 103 23.7109C102.818 23.2109 102.727 22.6641 102.727 22.0703V21.7422C102.727 21.0547 102.828 20.4427 103.031 19.9062C103.234 19.3646 103.51 18.9062 103.859 18.5312C104.208 18.1562 104.604 17.8724 105.047 17.6797C105.49 17.487 105.948 17.3906 106.422 17.3906C107.026 17.3906 107.547 17.4948 107.984 17.7031C108.427 17.9115 108.789 18.2031 109.07 18.5781C109.352 18.9479 109.56 19.3854 109.695 19.8906C109.831 20.3906 109.898 20.9375 109.898 21.5312V22.1797H103.586V21H108.453V20.8906C108.432 20.5156 108.354 20.151 108.219 19.7969C108.089 19.4427 107.88 19.151 107.594 18.9219C107.307 18.6927 106.917 18.5781 106.422 18.5781C106.094 18.5781 105.792 18.6484 105.516 18.7891C105.24 18.9245 105.003 19.1276 104.805 19.3984C104.607 19.6693 104.453 20 104.344 20.3906C104.234 20.7812 104.18 21.2318 104.18 21.7422V22.0703C104.18 22.4714 104.234 22.849 104.344 23.2031C104.458 23.5521 104.622 23.8594 104.836 24.125C105.055 24.3906 105.318 24.599 105.625 24.75C105.938 24.901 106.292 24.9766 106.688 24.9766C107.198 24.9766 107.63 24.8724 107.984 24.6641C108.339 24.4557 108.648 24.1771 108.914 23.8281L109.789 24.5234C109.607 24.7995 109.375 25.0625 109.094 25.3125C108.812 25.5625 108.466 25.7656 108.055 25.9219C107.648 26.0781 107.167 26.1562 106.609 26.1562ZM116.914 24.3594V14H118.367V26H117.039L116.914 24.3594ZM111.227 21.8672V21.7031C111.227 21.0573 111.305 20.4714 111.461 19.9453C111.622 19.4141 111.849 18.9583 112.141 18.5781C112.438 18.1979 112.789 17.9062 113.195 17.7031C113.607 17.4948 114.065 17.3906 114.57 17.3906C115.102 17.3906 115.565 17.4844 115.961 17.6719C116.362 17.8542 116.701 18.1224 116.977 18.4766C117.258 18.8255 117.479 19.2474 117.641 19.7422C117.802 20.237 117.914 20.7969 117.977 21.4219V22.1406C117.919 22.7604 117.807 23.3177 117.641 23.8125C117.479 24.3073 117.258 24.7292 116.977 25.0781C116.701 25.4271 116.362 25.6953 115.961 25.8828C115.56 26.0651 115.091 26.1562 114.555 26.1562C114.06 26.1562 113.607 26.0495 113.195 25.8359C112.789 25.6224 112.438 25.3229 112.141 24.9375C111.849 24.5521 111.622 24.099 111.461 23.5781C111.305 23.0521 111.227 22.4818 111.227 21.8672ZM112.68 21.7031V21.8672C112.68 22.2891 112.721 22.6849 112.805 23.0547C112.893 23.4245 113.029 23.75 113.211 24.0312C113.393 24.3125 113.625 24.5339 113.906 24.6953C114.188 24.8516 114.523 24.9297 114.914 24.9297C115.393 24.9297 115.786 24.8281 116.094 24.625C116.406 24.4219 116.656 24.1536 116.844 23.8203C117.031 23.487 117.177 23.125 117.281 22.7344V20.8516C117.219 20.5651 117.128 20.2891 117.008 20.0234C116.893 19.7526 116.742 19.513 116.555 19.3047C116.372 19.0911 116.146 18.9219 115.875 18.7969C115.609 18.6719 115.294 18.6094 114.93 18.6094C114.534 18.6094 114.193 18.6927 113.906 18.8594C113.625 19.0208 113.393 19.2448 113.211 19.5312C113.029 19.8125 112.893 20.1406 112.805 20.5156C112.721 20.8854 112.68 21.2812 112.68 21.7031Z" fill="black"/>
<rect x="15" y="10" width="22" height="22" rx="11" fill="#00FF06"/>
<path d="M23.25 28.7183L17.5575 23.0258L20.1517 20.4317L23.25 23.5392L32.3067 14.4733L34.9008 17.0675L23.25 28.7183Z" fill="black"/>
</g>
<defs>
<clipPath id="clip0_6_83">
<rect width="159" height="42" rx="14" fill="white"/>
</clipPath>
</defs>
</svg>
